<mxfile host="app.diagrams.net" modified="2021-12-27T02:37:07.733Z" agent="5.0 (Windows NT 6.1; Win64; x64) AppleWebKit/537.36 (KHTML, like Gecko) Chrome/96.0.4664.110 Safari/537.36" etag="nf9L79ZID8KTMftRfTEk" version="16.1.0" type="github">
  <diagram id="C5RBs43oDa-KdzZeNtuy" name="Page-1">
    <mxGraphModel dx="1422" dy="777" grid="1" gridSize="10" guides="1" tooltips="1" connect="1" arrows="1" fold="1" page="1" pageScale="1" pageWidth="827" pageHeight="1169" math="0" shadow="0">
      <root>
        <mxCell id="WIyWlLk6GJQsqaUBKTNV-0" />
        <mxCell id="WIyWlLk6GJQsqaUBKTNV-1" parent="WIyWlLk6GJQsqaUBKTNV-0" />
        <mxCell id="snW-wMUoypjl8WUmlegl-4" value="" style="edgeStyle=orthogonalEdgeStyle;rounded=0;orthogonalLoop=1;jettySize=auto;html=1;" edge="1" parent="WIyWlLk6GJQsqaUBKTNV-1" source="snW-wMUoypjl8WUmlegl-2" target="snW-wMUoypjl8WUmlegl-3">
          <mxGeometry relative="1" as="geometry" />
        </mxCell>
        <mxCell id="snW-wMUoypjl8WUmlegl-2" value="订阅行情" style="strokeWidth=2;html=1;shape=mxgraph.flowchart.terminator;whiteSpace=wrap;" vertex="1" parent="WIyWlLk6GJQsqaUBKTNV-1">
          <mxGeometry x="140" y="120" width="100" height="60" as="geometry" />
        </mxCell>
        <mxCell id="snW-wMUoypjl8WUmlegl-6" value="" style="edgeStyle=orthogonalEdgeStyle;rounded=0;orthogonalLoop=1;jettySize=auto;html=1;" edge="1" parent="WIyWlLk6GJQsqaUBKTNV-1" source="snW-wMUoypjl8WUmlegl-3" target="snW-wMUoypjl8WUmlegl-5">
          <mxGeometry relative="1" as="geometry" />
        </mxCell>
        <mxCell id="snW-wMUoypjl8WUmlegl-3" value="调用接口订阅" style="whiteSpace=wrap;html=1;strokeWidth=2;" vertex="1" parent="WIyWlLk6GJQsqaUBKTNV-1">
          <mxGeometry x="310" y="120" width="120" height="60" as="geometry" />
        </mxCell>
        <mxCell id="snW-wMUoypjl8WUmlegl-8" value="" style="edgeStyle=orthogonalEdgeStyle;rounded=0;orthogonalLoop=1;jettySize=auto;html=1;" edge="1" parent="WIyWlLk6GJQsqaUBKTNV-1" source="snW-wMUoypjl8WUmlegl-5" target="snW-wMUoypjl8WUmlegl-7">
          <mxGeometry relative="1" as="geometry" />
        </mxCell>
        <mxCell id="snW-wMUoypjl8WUmlegl-21" value="" style="edgeStyle=orthogonalEdgeStyle;rounded=0;orthogonalLoop=1;jettySize=auto;html=1;" edge="1" parent="WIyWlLk6GJQsqaUBKTNV-1" source="snW-wMUoypjl8WUmlegl-5" target="snW-wMUoypjl8WUmlegl-20">
          <mxGeometry relative="1" as="geometry" />
        </mxCell>
        <mxCell id="snW-wMUoypjl8WUmlegl-25" value="Text" style="edgeLabel;html=1;align=center;verticalAlign=middle;resizable=0;points=[];" vertex="1" connectable="0" parent="snW-wMUoypjl8WUmlegl-21">
          <mxGeometry x="-0.2444" relative="1" as="geometry">
            <mxPoint as="offset" />
          </mxGeometry>
        </mxCell>
        <mxCell id="snW-wMUoypjl8WUmlegl-5" value="接口返回成功" style="rhombus;whiteSpace=wrap;html=1;strokeWidth=2;" vertex="1" parent="WIyWlLk6GJQsqaUBKTNV-1">
          <mxGeometry x="490" y="110" width="80" height="80" as="geometry" />
        </mxCell>
        <mxCell id="snW-wMUoypjl8WUmlegl-10" value="" style="edgeStyle=orthogonalEdgeStyle;rounded=0;orthogonalLoop=1;jettySize=auto;html=1;" edge="1" parent="WIyWlLk6GJQsqaUBKTNV-1" source="snW-wMUoypjl8WUmlegl-7" target="snW-wMUoypjl8WUmlegl-9">
          <mxGeometry relative="1" as="geometry" />
        </mxCell>
        <mxCell id="snW-wMUoypjl8WUmlegl-7" value="更新已订阅合约列表" style="whiteSpace=wrap;html=1;strokeWidth=2;" vertex="1" parent="WIyWlLk6GJQsqaUBKTNV-1">
          <mxGeometry x="630" y="120" width="120" height="60" as="geometry" />
        </mxCell>
        <mxCell id="snW-wMUoypjl8WUmlegl-12" value="" style="edgeStyle=orthogonalEdgeStyle;rounded=0;orthogonalLoop=1;jettySize=auto;html=1;" edge="1" parent="WIyWlLk6GJQsqaUBKTNV-1" source="snW-wMUoypjl8WUmlegl-9" target="snW-wMUoypjl8WUmlegl-11">
          <mxGeometry relative="1" as="geometry" />
        </mxCell>
        <mxCell id="snW-wMUoypjl8WUmlegl-9" value="写入已订阅合约配置文件" style="whiteSpace=wrap;html=1;strokeWidth=2;" vertex="1" parent="WIyWlLk6GJQsqaUBKTNV-1">
          <mxGeometry x="830" y="120" width="120" height="60" as="geometry" />
        </mxCell>
        <mxCell id="snW-wMUoypjl8WUmlegl-24" value="" style="edgeStyle=orthogonalEdgeStyle;rounded=0;orthogonalLoop=1;jettySize=auto;html=1;" edge="1" parent="WIyWlLk6GJQsqaUBKTNV-1" source="snW-wMUoypjl8WUmlegl-11" target="snW-wMUoypjl8WUmlegl-22">
          <mxGeometry relative="1" as="geometry" />
        </mxCell>
        <mxCell id="snW-wMUoypjl8WUmlegl-11" value="写入已订阅合约配置文件" style="whiteSpace=wrap;html=1;strokeWidth=2;" vertex="1" parent="WIyWlLk6GJQsqaUBKTNV-1">
          <mxGeometry x="1030" y="120" width="120" height="60" as="geometry" />
        </mxCell>
        <mxCell id="snW-wMUoypjl8WUmlegl-30" value="" style="edgeStyle=orthogonalEdgeStyle;rounded=0;orthogonalLoop=1;jettySize=auto;html=1;" edge="1" parent="WIyWlLk6GJQsqaUBKTNV-1" source="snW-wMUoypjl8WUmlegl-20" target="snW-wMUoypjl8WUmlegl-29">
          <mxGeometry relative="1" as="geometry" />
        </mxCell>
        <mxCell id="snW-wMUoypjl8WUmlegl-20" value="错误提示" style="whiteSpace=wrap;html=1;strokeWidth=2;" vertex="1" parent="WIyWlLk6GJQsqaUBKTNV-1">
          <mxGeometry x="480" y="250" width="100" height="40" as="geometry" />
        </mxCell>
        <mxCell id="snW-wMUoypjl8WUmlegl-22" value="结束" style="strokeWidth=2;html=1;shape=mxgraph.flowchart.terminator;whiteSpace=wrap;" vertex="1" parent="WIyWlLk6GJQsqaUBKTNV-1">
          <mxGeometry x="1191" y="120" width="100" height="60" as="geometry" />
        </mxCell>
        <mxCell id="snW-wMUoypjl8WUmlegl-29" value="结束" style="strokeWidth=2;html=1;shape=mxgraph.flowchart.terminator;whiteSpace=wrap;" vertex="1" parent="WIyWlLk6GJQsqaUBKTNV-1">
          <mxGeometry x="640" y="240" width="100" height="60" as="geometry" />
        </mxCell>
      </root>
    </mxGraphModel>
  </diagram>
</mxfile>
